<?xml version="1.0" encoding="UTF-8" standalone="no"?>
<svg
   xmlns:dc="http://purl.org/dc/elements/1.1/"
   xmlns:cc="http://creativecommons.org/ns#"
   xmlns:rdf="http://www.w3.org/1999/02/22-rdf-syntax-ns#"
   xmlns:svg="http://www.w3.org/2000/svg"
   xmlns="http://www.w3.org/2000/svg"
   viewBox="0 0 350 300"
   height="300"
   width="350"
   xml:space="preserve"
   id="svg2"
   version="1.1"><metadata
     id="metadata8"><rdf:RDF><cc:Work
         rdf:about=""><dc:format>image/svg+xml</dc:format><dc:type
           rdf:resource="http://purl.org/dc/dcmitype/StillImage" /></cc:Work></rdf:RDF></metadata><defs
     id="defs6" />
    
  <g transform="matrix(1.3333333,0,0,-1.3333333,0,200)" id="g10">
    <g transform="translate(-230, 0)" id="gcustom">
    <g transform="scale(0.1)" id="g12">

      <g transform='scale(1.7)'>
      <path transform='translate(-1660, -210)' id="white" style="fill:white;fill-opacity:1;fill-rule:nonzero;stroke:none"
        d="m 4466.42,469.211 c -13.3,6.391 -16.23,8.828 -48.42,24.469 -41.57,20.218 -80.96,42.601 -95.76,50.55 -26.25,14.083 -75.32,59.415 -123.95,73.418 l 7.79,71.016 c 0,0 -40.78,0.801 -99.3,-58.25 -12.34,-1.164 -97.57,-12.941 -160.07,-34.758 -25.48,-8.886 -43.04,-16.386 -62.54,-28.027 5.62,-6.902 11.37,-19.168 14.11,-26.445 8.71,-23.184 6.49,-62.473 -7.64,-86.973 C 3832.46,353.301 3670.5,290.762 3670.5,290.762 v 0 c 0,-34.582 54.7,-34.582 117.72,-35.364 86.61,-0.769 190.03,-2.367 190.03,-99.019 0,-17.379 -4.11,-34.078 -11.67,-49.699 -0.22,-0.5 -0.44,-0.891 -0.67,-1.348 -0.37,-0.742 -0.7,-1.504 -1.09,-2.23 79.11,124.898 77.56,164.949 129.33,259.628 l -3.45,3.11 c -10.51,11.64 -14.46,38.922 -14.46,38.922 25.41,-43.91 59.31,-49.063 74.62,-51.25 15.32,-2.192 23.27,-2.114 33.92,-2.313 36.01,-0.679 119.67,18.071 142.4,20.731 0,0 16.65,3.3 42.79,0 23.53,-2.969 62.77,-15.918 77.88,-12.871 8.98,0.82 15.88,7.793 16.34,8.281 0.58,0.988 4.28,7.109 22.45,36.441 29.12,47.028 -11.06,61.02 -20.22,65.43 z m -2.14,-101.801 c 0,0 -0.07,-0.051 -0.09,-0.07 -0.25,-0.449 0.09,0.07 0.09,0.07" />
        </g>
      
      <path id="head"
        style="fill:#f68b11;fill-opacity:1;fill-rule:nonzero;stroke:none"
        d="m 4466.42,469.211 c -13.3,6.391 -16.23,8.828 -48.42,24.469 -41.57,20.218 -80.96,42.601 -95.76,50.55 -26.25,14.083 -75.32,59.415 -123.95,73.418 l 7.79,71.016 c 0,0 -40.78,0.801 -99.3,-58.25 -12.34,-1.164 -97.57,-12.941 -160.07,-34.758 -25.48,-8.886 -43.04,-16.386 -62.54,-28.027 5.62,-6.902 11.37,-19.168 14.11,-26.445 8.71,-23.184 6.49,-62.473 -7.64,-86.973 C 3832.46,353.301 3670.5,290.762 3670.5,290.762 v 0 c 0,-34.582 54.7,-34.582 117.72,-35.364 86.61,-0.769 190.03,-2.367 190.03,-99.019 0,-17.379 -4.11,-34.078 -11.67,-49.699 -0.22,-0.5 -0.44,-0.891 -0.67,-1.348 -0.37,-0.742 -0.7,-1.504 -1.09,-2.23 79.11,124.898 77.56,164.949 129.33,259.628 l -3.45,3.11 c -10.51,11.64 -14.46,38.922 -14.46,38.922 25.41,-43.91 59.31,-49.063 74.62,-51.25 15.32,-2.192 23.27,-2.114 33.92,-2.313 36.01,-0.679 119.67,18.071 142.4,20.731 0,0 16.65,3.3 42.79,0 23.53,-2.969 62.77,-15.918 77.88,-12.871 8.98,0.82 15.88,7.793 16.34,8.281 0.58,0.988 4.28,7.109 22.45,36.441 29.12,47.028 -11.06,61.02 -20.22,65.43 z m -2.14,-101.801 c 0,0 -0.07,-0.051 -0.09,-0.07 -0.25,-0.449 0.09,0.07 0.09,0.07" />
        
      <path id="orangeWing"
        style="fill:#f68b11;fill-opacity:1;fill-rule:nonzero;stroke:none"
        d="m 3633.02,792.367 c -50.24,66.18 -77.71,105.41 -290.46,235.313 -227.7,139.03 -616.05,342.71 -1091.23,489.09 l 628.09,-328.29 c 172.67,-55.4 328.64,-120.52 452.11,-187.77 179.79,-97.913 239.63,-142.46 301.49,-208.343" />
        
      <path id="greyWing"
        style="fill:#baad9f;fill-opacity:1;fill-rule:nonzero;stroke:none"
        d="m 3850.65,604.574 c -63.89,82.215 -216.06,174.422 -360.36,247.723 -205.33,104.297 -653.81,259.773 -900.75,295.603 l 436.19,-224.177 c 191.8,-21.774 298.25,-46.989 475.06,-112.118 122.34,-45.07 277.82,-127.187 349.86,-207.031" />
    </g>
    </g>
  </g>
</svg>