<?xml version="1.0" encoding="UTF-8" standalone="no"?>
<svg
   xmlns:dc="http://purl.org/dc/elements/1.1/"
   xmlns:cc="http://creativecommons.org/ns#"
   xmlns:rdf="http://www.w3.org/1999/02/22-rdf-syntax-ns#"
   xmlns:svg="http://www.w3.org/2000/svg"
   xmlns="http://www.w3.org/2000/svg"
   viewBox="0 0 600 120"
   height="120"
   width="600"
   xml:space="preserve"
   id="svg2"
   version="1.1"><metadata
     id="metadata8"><rdf:RDF><cc:Work
         rdf:about=""><dc:format>image/svg+xml</dc:format><dc:type
           rdf:resource="http://purl.org/dc/dcmitype/StillImage" /></cc:Work></rdf:RDF></metadata><defs
     id="defs6" />
     <g transform="matrix(1.3333333,0,0,-1.3333333,0,202.23599)" id="g10">
     <g transform="translate(0, 70)">
     <g transform="scale(0.1)" id="g12"><path
         id="path14"
         style="fill:#baad9f;fill-opacity:1;fill-rule:nonzero;stroke:none"
         d="m 158.906,561.098 c -42.051,0 -63.0622,-14.922 -63.0622,-43.215 V 256.98 c 13.4532,-10.21 32.8012,-19.648 65.5822,-19.648 70.621,0 115.179,66.797 115.179,165.828 0,107.641 -59.687,157.938 -117.699,157.938 z M 178.23,183.91 c -42.023,0 -71.46,14.141 -82.3862,21.211 V 22.0117 c 0,-9.4101 -4.2032,-13.37107 -14.293,-13.37107 H 15.1289 C 5.04297,8.64063 0,12.6016 0,22.0117 V 526.527 c 0,28.282 8.40234,42.43 31.957,57.344 22.6993,14.141 76.496,26.738 129.469,26.738 155.543,0 212.707,-92.726 212.707,-202.757 0,-109.223 -63.906,-223.942 -195.903,-223.942" /><path
         id="path16"
         style="fill:#baad9f;fill-opacity:1;fill-rule:nonzero;stroke:none"
         d="m 692.766,405.488 c -78.192,-14.91 -150.5,-36.129 -150.5,-104.508 0,-37.718 29.433,-69.16 84.074,-69.16 31.937,0 66.426,10.219 66.426,44.02 z m 60.519,-198.027 c -18.496,-11.801 -72.289,-24.34 -125.258,-24.34 -97.531,0 -178.246,34.551 -178.246,110.789 0,106.078 138.731,132.789 242.985,151.68 v 53.422 c 0,39.301 -25.223,63.636 -61.383,63.636 -47.07,0 -69.785,-36.121 -77.356,-61.289 -5.035,-16.5 -21.855,-26.687 -42.871,-26.687 -22.695,0 -42.871,11.769 -42.871,36.129 0,34.594 49.602,99.808 176.551,99.808 76.496,0 140.398,-38.515 140.398,-118.668 V 270.332 c 0,-33.793 -8.402,-47.941 -31.949,-62.871" /><path
         id="path18"
         style="fill:#baad9f;fill-opacity:1;fill-rule:nonzero;stroke:none"
         d="m 1066.04,183.121 c -97.528,0 -186.645,64.438 -186.645,213.738 0,139.09 79.863,213.75 189.995,213.75 106.79,0 155.55,-68.379 155.55,-102.949 0,-25.129 -15.98,-40.058 -44.54,-40.058 -23.56,0 -35.33,14.117 -41.21,31.41 -5.89,18.082 -24.38,62.086 -75.68,62.086 -50.43,0 -95.838,-47.95 -95.838,-140.676 0,-87.211 38.678,-163.442 121.918,-163.442 52.95,0 77.34,36.141 94.99,65.989 5.06,8.672 13.46,14.152 23.54,14.152 11.78,0 19.35,-8.641 19.35,-19.633 0,-47.949 -56.34,-134.367 -161.43,-134.367" /><path
         id="path20"
         style="fill:#baad9f;fill-opacity:1;fill-rule:nonzero;stroke:none"
         d="m 1663.8,193.32 h -74 c -10.92,0 -15.13,4.731 -21.86,12.571 L 1435.1,364.629 c -13.45,15.723 -23.53,35.359 -23.53,35.359 h -1.68 V 206.672 c 0,-9.41 -5.05,-13.352 -15.13,-13.352 h -64.75 c -10.07,0 -15.13,3.942 -15.13,13.352 v 574.465 c 0,9.414 5.06,13.359 15.13,13.359 h 64.75 c 10.08,0 15.13,-3.945 15.13,-13.359 V 424.371 h 1.68 l 153.02,163.453 c 6.73,7.082 10.93,12.559 22.7,12.559 h 60.53 c 10.1,0 15.12,-3.914 15.12,-13.348 0,-3.164 -2.51,-7.871 -5.88,-10.996 l -158.89,-156.41 176.55,-201.957 c 3.36,-3.141 4.2,-7.863 4.2,-11 0,-9.41 -5.06,-13.352 -15.12,-13.352" /><path
         id="path22"
         style="fill:#baad9f;fill-opacity:1;fill-rule:nonzero;stroke:none"
         d="m 1975.68,405.488 c -78.18,-14.91 -150.47,-36.129 -150.47,-104.508 0,-37.718 29.4,-69.16 84.04,-69.16 31.98,0 66.43,10.219 66.43,44.02 z m 60.55,-198.027 c -18.49,-11.801 -72.31,-24.34 -125.28,-24.34 -97.5,0 -178.23,34.551 -178.23,110.789 0,106.078 138.7,132.789 242.96,151.68 v 53.422 c 0,39.301 -25.2,63.636 -61.35,63.636 -47.07,0 -69.8,-36.121 -77.35,-61.289 -5.04,-16.5 -21.85,-26.687 -42.89,-26.687 -22.68,0 -42.86,11.769 -42.86,36.129 0,34.594 49.6,99.808 176.53,99.808 76.52,0 140.4,-38.515 140.4,-118.668 V 270.332 c 0,-33.793 -8.38,-47.941 -31.93,-62.871" /><path
         id="path24"
         style="fill:#baad9f;fill-opacity:1;fill-rule:nonzero;stroke:none"
         d="m 3182.98,193.32 h -67.25 c -10.09,0 -14.31,3.942 -14.31,13.352 v 278.976 c 0,38.516 -20.15,76.239 -87.44,76.239 -68.11,0 -74.82,-26.727 -74.82,-51.867 V 206.672 c 0,-9.41 -5.04,-13.352 -15.13,-13.352 h -66.4 c -10.13,0 -15.16,3.942 -15.16,13.352 v 331.641 c 0,25.91 8.41,36.933 33.64,48.722 27.73,12.559 79.02,23.574 141.25,23.574 89.11,0 179.93,-26.738 179.93,-121.019 V 206.672 c 0,-9.41 -4.21,-13.352 -14.31,-13.352" /><path
         id="path26"
         style="fill:#baad9f;fill-opacity:1;fill-rule:nonzero;stroke:none"
         d="m 3467.16,565.023 c -51.28,0 -81.58,-34.562 -81.58,-80.941 0,-49.512 26.92,-104.523 83.26,-104.523 51.29,0 81.53,33.793 81.53,81.75 0,49.492 -26.9,103.714 -83.21,103.714 z m -53.8,-369.363 c -22.74,-14.14 -47.94,-39.281 -47.94,-69.941 0,-44.7776 37.86,-74.637 110.98,-74.637 68.09,0 125.29,40.0782 125.29,85.648 0,68.391 -103.4,51.86 -188.33,58.93 z M 3452.88,0 c -110.17,0 -170.69,42.4414 -170.69,104.488 0,51.121 49.59,84.102 79.87,99.852 -32.8,7.07 -64.73,24.34 -64.73,61.281 0,40.09 53.8,74.66 73.98,84.867 -45.41,24.383 -73.15,66.801 -73.15,119.442 0,82.535 67.26,140.679 169,140.679 68.08,0 94.14,-24.375 130.32,-24.375 26.06,0 47.93,5.496 61.38,11.016 3.35,1.563 7.55,1.563 10.93,1.563 5.04,0 6.71,-3.125 9.23,-11.778 2.54,-6.281 5.04,-12.57 5.04,-15.722 0,-3.918 -2.5,-7.872 -9.23,-10.997 -12.62,-6.289 -36.14,-13.359 -63.88,-16.523 15.11,-19.629 25.2,-45.563 25.2,-73.863 0,-81.7 -67.27,-139.879 -168.99,-139.879 -21.84,0 -36.99,2.371 -52.12,7.07 -10.92,-6.281 -35.35,-27.5 -35.35,-46.359 0,-34.582 54.7,-34.582 117.72,-35.364 86.61,-0.769 190.03,-2.367 190.03,-99.019 C 3687.44,69.9414 3587.39,0 3452.88,0" /><path
         id="path28"
         style="fill:#baad9f;fill-opacity:1;fill-rule:nonzero;stroke:none"
         d="m 2337.16,565.023 c -51.28,0 -81.58,-34.562 -81.58,-80.941 0,-49.512 26.92,-104.523 83.26,-104.523 51.29,0 81.53,33.793 81.53,81.75 0,49.492 -26.9,103.714 -83.21,103.714 z M 2556.77,136.73 c 0,68.391 -146.29,58.93 -273.41,58.93 v 0 c -100.18,0 -116.03,33.02 -116.03,69.961 0,40.09 53.8,74.66 73.98,84.867 -45.41,24.383 -73.15,66.801 -73.15,119.442 0,82.535 67.26,140.679 169,140.679 68.08,0 94.14,-24.375 130.32,-24.375 26.06,0 47.93,5.496 61.38,11.016 3.35,1.563 7.55,1.563 10.93,1.563 5.04,0 6.71,-3.125 9.23,-11.778 2.54,-6.281 5.04,-12.57 5.04,-15.722 0,-3.918 -2.5,-7.872 -9.23,-10.997 -12.62,-6.289 -36.14,-13.359 -63.88,-16.523 15.11,-19.629 25.2,-45.563 25.2,-73.863 0,-81.7 -67.27,-139.879 -168.99,-139.879 -21.84,0 -36.99,2.371 -52.12,7.07 -10.92,-6.281 -35.35,-27.5 -35.35,-46.359 0,-34.582 54.7,-34.582 117.72,-35.364 86.61,-0.769 190.03,-2.367 190.03,-99.019 l -0.67,-19.649" /><path
         id="path30"
         style="fill:#baad9f;fill-opacity:1;fill-rule:nonzero;stroke:none"
         d="m 2680.12,731.645 c -31.36,0 -56.78,-16.946 -56.78,-37.852 0,-20.918 25.42,-37.863 56.78,-37.863 31.37,0 56.79,16.945 56.79,37.863 0,20.906 -25.42,37.852 -56.79,37.852 z m 31.19,-131.262 h -67.22 c -10.1,0 -14.3,-3.914 -14.3,-13.348 V 206.672 c 0,-9.41 4.2,-13.352 14.3,-13.352 h 67.22 c 10.1,0 14.3,3.942 14.3,13.352 v 380.363 c 0,9.434 -4.2,13.348 -14.3,13.348" /><path
         id="path38"
         style="fill:#f68b11;fill-opacity:1;fill-rule:nonzero;stroke:none"
         d="m 1800.78,13.4297 h -16.65 c -2.6,0 -3.64,0.6992 -5.03,2.3086 l -36.08,42.4531 c -2.77,3.1602 -5.03,7.2305 -5.03,7.2305 h -0.34 V 15.8711 c 0,-1.7422 -1.04,-2.4414 -3.14,-2.4414 h -14.9 c -2.09,0 -3.13,0.6992 -3.13,2.4414 v 97.3479 c 0,1.73 1.04,2.453 3.13,2.453 h 14.9 c 2.1,0 3.14,-0.723 3.14,-2.453 V 71.0703 h 0.34 l 40.77,42.2697 c 1.37,1.461 2.25,2.332 4.68,2.332 h 13.01 c 2.08,0 2.94,-0.723 2.94,-2.453 0,-0.598 -0.34,-1.469 -0.86,-2.039 l -41.8,-41.1409 45.97,-51.8282 c 0.69,-0.7421 1.03,-1.6015 1.03,-2.3398 0,-1.7422 -0.86,-2.4414 -2.95,-2.4414" /><path
         id="path40"
         style="fill:#f68b11;fill-opacity:1;fill-rule:nonzero;stroke:none"
         d="m 2012.87,13.4297 h -12.67 c -2.43,0 -3.47,0.8711 -4.69,2.4414 l -50.98,64.5977 c -5.57,6.9531 -10.41,16.8203 -10.41,16.8203 h -0.37 c 0,0 1.22,-10.3086 1.22,-17.9883 V 15.8711 c 0,-1.7422 -1.03,-2.4414 -3.1,-2.4414 h -11.29 c -2.07,0 -2.95,0.6992 -2.95,2.4414 v 97.3479 c 0,1.73 0.88,2.453 2.95,2.453 h 16.31 c 2.07,0 3.3,-0.871 4.51,-2.453 l 47.53,-59.9885 c 5.89,-7.3711 10.59,-17.0821 10.59,-17.0821 h 0.33 c 0,0 -1.2,10.4336 -1.2,18.9805 v 58.0901 c 0,1.73 0.87,2.453 2.94,2.453 h 11.28 c 2.07,0 3.1,-0.723 3.1,-2.453 V 15.8711 c 0,-1.7422 -1.03,-2.4414 -3.1,-2.4414" /><path
         id="path42"
         style="fill:#f68b11;fill-opacity:1;fill-rule:nonzero;stroke:none"
         d="m 2189.19,106.68 c -19.59,0 -30.35,-16.0706 -30.35,-39.8206 0,-27.2383 13.36,-43.3086 31.41,-43.3086 18.72,0 30.35,16.0703 30.35,40.4297 0,26.4804 -12.32,42.6995 -31.41,42.6995 z m 0.36,-95.43 c -29.67,0 -53.41,19.1094 -53.41,53.8594 0,32.6094 22.19,52.7226 53.41,52.7226 31.23,0 53.6,-20.1132 53.6,-52.7226 0,-34.75 -23.94,-53.8594 -53.6,-53.8594" /><path
         id="path44"
         style="fill:#f68b11;fill-opacity:1;fill-rule:nonzero;stroke:none"
         d="m 2504.15,111.031 -32.11,-95.1599 c -0.5,-1.7422 -1.55,-2.4414 -3.97,-2.4414 h -10.93 c -2.27,0 -3.46,0.6992 -4,2.4414 l -19.59,60.2695 c -2.43,7.3789 -3.99,16.7891 -3.99,16.7891 h -0.36 c 0,0 -1.55,-9.4102 -3.98,-16.7891 l -19.6,-60.2695 c -0.51,-1.7422 -1.56,-2.4414 -3.99,-2.4414 h -11.11 c -2.42,0 -3.28,0.6992 -3.81,2.4414 l -32.09,95.1599 c -0.16,0.719 -0.51,1.438 -0.51,2.188 0,1.73 1.21,2.453 3.11,2.453 h 15.1 c 2.08,0 3.29,-0.723 3.81,-2.453 l 18.04,-63.7385 c 1.91,-6.5117 3.12,-15.3516 3.12,-15.3516 h 0.34 c 0,0 1.74,8.9805 3.83,15.3516 l 20.63,63.7385 c 0.53,1.73 1.57,2.453 3.83,2.453 h 9.52 c 2.44,0 3.31,-0.723 3.84,-2.453 l 20.13,-63.7385 c 2.06,-6.3711 3.62,-15.3516 3.62,-15.3516 h 0.35 c 0,0 1.39,8.8399 3.29,15.3516 l 18.57,63.7385 c 0.54,1.73 1.73,2.453 3.81,2.453 h 12.49 c 1.9,0 3.12,-0.723 3.12,-2.453 0,-0.75 -0.35,-1.469 -0.51,-2.188" /><path
         id="path46"
         style="fill:#f68b11;fill-opacity:1;fill-rule:nonzero;stroke:none"
         d="m 2707.9,13.4297 h -15.44 c -2.09,0 -2.94,0.6992 -2.94,2.4414 v 44.7578 h -48.59 V 15.8711 c 0,-1.7422 -1.03,-2.4414 -3.11,-2.4414 h -15.45 c -2.06,0 -2.96,0.6992 -2.96,2.4414 v 97.3479 c 0,1.73 0.9,2.453 2.96,2.453 h 15.45 c 2.08,0 3.11,-0.723 3.11,-2.453 V 72.082 h 48.59 v 41.137 c 0,1.73 0.85,2.453 2.94,2.453 h 15.44 c 2.08,0 3.12,-0.723 3.12,-2.453 V 15.8711 c 0,-1.7422 -1.04,-2.4414 -3.12,-2.4414" /><path
         id="path48"
         style="fill:#f68b11;fill-opacity:1;fill-rule:nonzero;stroke:none"
         d="m 2884.22,106.68 c -19.59,0 -30.36,-16.0706 -30.36,-39.8206 0,-27.2383 13.37,-43.3086 31.41,-43.3086 18.72,0 30.34,16.0703 30.34,40.4297 0,26.4804 -12.3,42.6995 -31.39,42.6995 z m 0.36,-95.43 c -29.65,0 -53.42,19.1094 -53.42,53.8594 0,32.6094 22.19,52.7226 53.42,52.7226 31.21,0 53.58,-20.1132 53.58,-52.7226 0,-34.75 -23.93,-53.8594 -53.58,-53.8594" /><path
         id="path50"
         style="fill:#f68b11;fill-opacity:1;fill-rule:nonzero;stroke:none"
         d="m 3199.18,111.031 -32.09,-95.1599 c -0.53,-1.7422 -1.56,-2.4414 -3.98,-2.4414 h -10.95 c -2.24,0 -3.45,0.6992 -3.98,2.4414 l -19.62,60.2695 c -2.41,7.3789 -3.96,16.7891 -3.96,16.7891 h -0.36 c 0,0 -1.55,-9.4102 -3.98,-16.7891 l -19.61,-60.2695 c -0.53,-1.7422 -1.55,-2.4414 -3.99,-2.4414 h -11.11 c -2.42,0 -3.29,0.6992 -3.8,2.4414 l -32.11,95.1599 c -0.15,0.719 -0.49,1.438 -0.49,2.188 0,1.73 1.21,2.453 3.11,2.453 h 15.09 c 2.08,0 3.3,-0.723 3.82,-2.453 l 18.03,-63.7385 c 1.91,-6.5117 3.11,-15.3516 3.11,-15.3516 h 0.36 c 0,0 1.73,8.9805 3.82,15.3516 l 20.64,63.7385 c 0.53,1.73 1.56,2.453 3.83,2.453 h 9.51 c 2.45,0 3.31,-0.723 3.84,-2.453 l 20.12,-63.7385 c 2.08,-6.3711 3.64,-15.3516 3.64,-15.3516 h 0.35 c 0,0 1.38,8.8399 3.28,15.3516 l 18.57,63.7385 c 0.53,1.73 1.75,2.453 3.82,2.453 h 12.47 c 1.93,0 3.13,-0.723 3.13,-2.453 0,-0.75 -0.34,-1.469 -0.51,-2.188" /></g></g></g></svg>