<svg width="256" height="256" xmlns="http://www.w3.org/2000/svg">
 <metadata id="metadata8">image/svg+xml</metadata>

 <g>
  <title>background</title>
  <rect fill="none" id="canvas_background" height="258" width="258" y="-1" x="-1"/>
 </g>
 <g>
  <title>Layer 1</title>
  <g id="g10" transform="matrix(2.9731390527670625,0,0,-2.9731390527670625,-4.919417381286621,202.2359870094362) ">
   <g id="g12" transform="translate(3,0) scale(0.10000000149011612) ">
    <path fill="#f68b11" fill-rule="nonzero" d="m803.42,299.613148c-13.3,6.391 -16.23,8.828 -48.42,24.469c-41.57,20.218 -80.96,42.601 -95.76,50.55c-26.25,14.083 -75.32,59.415 -123.95,73.418l7.79,71.016c0,0 -40.78,0.801 -99.3,-58.25c-12.34,-1.164 -97.57,-12.941 -160.07,-34.758c-25.48,-8.886 -43.04,-16.386 -62.54,-28.027c5.62,-6.902 11.37,-19.168 14.11,-26.445c8.71,-23.184 6.49,-62.473 -7.64,-86.973c-58.18,-100.91 -220.14,-163.449 -220.14,-163.449l0,0c0,-34.582 54.7,-34.582 117.72,-35.364c86.61,-0.769 190.03,-2.367 190.03,-99.019c0,-17.379 -4.11,-34.078 -11.67,-49.699c-0.22,-0.5 -0.44,-0.891 -0.67,-1.348c-0.37,-0.742 -0.7,-1.504 -1.09,-2.23c79.11,124.898 77.56,164.949 129.33,259.628l-3.45,3.11c-10.51,11.64 -14.46,38.922 -14.46,38.922c25.41,-43.91 59.31,-49.063 74.62,-51.25c15.32,-2.192 23.27,-2.114 33.92,-2.313c36.01,-0.679 119.67,18.071 142.4,20.731c0,0 16.65,3.3 42.79,0c23.53,-2.969 62.77,-15.918 77.88,-12.871c8.98,0.82 15.88,7.793 16.34,8.281c0.58,0.988 4.28,7.109 22.45,36.441c29.12,47.028 -11.06,61.02 -20.22,65.43zm-2.14,-101.801c0,0 -0.07,-0.051 -0.09,-0.07c-0.25,-0.449 0.09,0.07 0.09,0.07" id="path32"/>
   </g>
  </g>
 </g>
</svg>