<?xml version="1.0" standalone="no"?>
<!DOCTYPE svg PUBLIC "-//W3C//DTD SVG 20010904//EN"
 "http://www.w3.org/TR/2001/REC-SVG-20010904/DTD/svg10.dtd">
<svg version="1.0" xmlns="http://www.w3.org/2000/svg"
 width="256.000000pt" height="256.000000pt" viewBox="0 0 256.000000 256.000000"
 preserveAspectRatio="xMidYMid meet">
<metadata>
Created by potrace 1.11, written by Peter Selinger 2001-2013
</metadata>
<g transform="translate(0.000000,256.000000) scale(0.100000,-0.100000)"
fill="#000000" stroke="none">
<path d="M1568 2056 c-59 -24 -137 -77 -177 -120 -23 -25 -37 -30 -116 -41
-189 -27 -373 -77 -513 -140 -60 -27 -72 -38 -53 -50 31 -19 52 -164 36 -244
-30 -150 -268 -363 -566 -508 -65 -32 -119 -63 -119 -69 0 -25 53 -63 103 -74
29 -6 122 -13 207 -15 336 -8 425 -25 526 -101 63 -47 96 -176 71 -279 l-7
-30 18 24 c30 42 119 209 155 291 8 19 26 60 39 90 14 30 31 71 38 90 8 19 35
78 61 131 l47 97 -24 48 c-33 65 -30 86 5 37 16 -22 56 -56 88 -74 58 -34 59
-34 188 -34 72 0 150 4 175 8 25 4 70 12 100 17 30 6 66 12 80 15 119 23 191
22 307 -4 156 -35 166 -32 237 89 45 77 52 107 33 152 -13 30 -33 44 -168 112
-265 135 -351 183 -453 255 -54 39 -134 88 -178 108 -71 35 -78 40 -73 63 2
14 7 60 11 103 7 89 8 88 -78 53z"/>
</g>
</svg>
